<?xml version="1.0"?>
<svg width="512" height="512" xmlns="http://www.w3.org/2000/svg" xmlns:svg="http://www.w3.org/2000/svg">
 <g class="layer">
  <title>Layer 1</title>
  <path d="m242.32,441.43c-79.57,-14.43 -115.18,-69.78 -130.46,-107.37c-9.87,-24.3 -13.64,-50.77 -10.53,-76.81c4.37,-36.67 20.28,-61.8 37.02,-78.55c25.26,-25.26 60.82,-37.58 96.4,-34.39c49.88,4.47 74.15,36.6 74.15,36.6c51.74,66.08 12.34,113.22 12.34,113.22s-33.85,41.81 -83.1,22.6c-50.41,-19.67 -28.53,-62.2 -28.53,-62.2c12.23,-22.24 29.75,-24.26 40.53,-22.94c2.49,0.3 3.64,-3.01 1.51,-4.34c-8.25,-5.14 -22.15,-9.76 -39.03,0.68c-14.54,8.99 -24.19,24.31 -26.34,41.27c-2.73,21.49 3.54,52.8 53,73.21c0,0 70.3,31.86 120.98,-47.37c0,0 62.2,-104.42 -57.07,-182.03c0,0 -89.59,-54.78 -179.18,25.68c0,0 -67.9,58.2 -54.21,153.5c0,0 4.63,46.95 37.66,87.88c0,0 53.4,64.06 134.5,65.04a1.88,1.88 0 0 0 1.89,-1.87a1.85,1.85 0 0 0 -1.53,-1.81z" fill="#19a1f4" id="svg_1" transform="matrix(1 0 0 1 0 0)"/>
  <path d="m258.52,85.69c79.57,14.43 115.18,69.78 130.45,107.37c9.88,24.3 13.65,50.77 10.54,76.81c-4.38,36.67 -20.28,61.8 -37.02,78.55c-25.26,25.26 -60.82,37.58 -96.41,34.39c-49.87,-4.47 -74.14,-36.6 -74.14,-36.6c-51.75,-66.08 -12.34,-113.22 -12.34,-113.22s33.85,-41.81 83.1,-22.6c50.41,19.67 28.53,62.2 28.53,62.2c-12.23,22.24 -29.75,24.26 -40.53,22.94c-2.49,-0.3 -3.64,3.01 -1.51,4.34c8.24,5.15 22.15,9.76 39.03,-0.68c14.54,-8.99 24.19,-24.31 26.34,-41.26c2.73,-21.5 -3.55,-52.81 -53,-73.22c0,0 -70.31,-31.86 -120.98,47.37c0,0 -62.2,104.42 57.06,182.03c0,0 89.59,54.78 179.18,-25.68c0,0 67.91,-58.2 54.22,-153.5c0,0 -4.63,-46.95 -37.67,-87.88c0,0 -53.39,-64.06 -134.49,-65.04a1.87,1.87 0 0 0 -1.89,1.87a1.85,1.85 0 0 0 1.53,1.81z" fill="#262c30" id="svg_2"/>
 </g>
</svg>